# ProBuilder 4.2.3
# https://unity3d.com/unity/features/worldbuilding/probuilder
# 27/9/2020 4:00:17 p. m.

mtllib ./WaterLily.mtl
o WaterLily

g WaterLily
v -0.998782 0.002434462 -0.05
v -0.9600437 0.2780718 -0.05
v -0.998782 0.002434462 0.05
v -0.9600437 0.2780718 0.05
v 0.001217961 0.002434462 -0.05
v 0.001217961 0.002434462 0.05
v -0.8468301 0.5323538 -0.05
v -0.8468301 0.5323538 0.05
v -0.6679126 0.7455794 -0.05
v -0.6679126 0.7455794 0.05
v -0.4371532 0.9012285 -0.05
v -0.4371532 0.9012285 0.05
v -0.1724303 0.9872422 -0.05
v -0.1724303 0.9872422 0.05
v 0.1057465 0.9969563 -0.05
v 0.1057465 0.9969563 0.05
v 0.3758246 0.9296184 -0.05
v 0.3758246 0.9296184 0.05
v 0.6168793 0.7904452 -0.05
v 0.6168793 0.7904452 0.05
v 0.810235 0.5902196 -0.05
v 0.810235 0.5902196 0.05
v 0.9409106 0.3444547 -0.05
v 0.9409106 0.3444547 0.05
v 0.998782 0.07219093 -0.05
v 0.998782 0.07219093 0.05
v 0.9793655 -0.2054773 -0.05
v 0.9793655 -0.2054773 0.05
v 0.8841656 -0.4670371 -0.05
v 0.8841656 -0.4670371 0.05
v 0.7205578 -0.6922239 -0.05
v 0.7205578 -0.6922239 0.05
v 0.5012178 -0.863591 -0.05
v 0.5012178 -0.863591 0.05
v 0.2431399 -0.9678613 -0.05
v 0.2431399 -0.9678613 0.05
v -0.03368133 -0.9969563 -0.05
v -0.03368133 -0.9969563 0.05
v -0.3077992 -0.948622 -0.05
v -0.3077992 -0.948622 0.05
v -0.5579749 -0.8266032 -0.05
v -0.5579749 -0.8266032 0.05
v -0.7648264 -0.6403533 -0.05
v -0.7648264 -0.6403533 0.05

vt -0.05 -0.1365928
vt -0.05 0.1417534
vt 0.05 -0.1365928
vt 0.05 0.1417534
vt 0 0
vt -0.998782 0.05
vt 0.001217961 0.05
vt -0.998782 -0.05
vt 0.001217961 -0.05
vt -0.05 -0.1364536
vt 0.05 -0.1364536
vt 0.1368019 -0.05
vt -0.1415442 -0.05
vt 0.1368019 0.05
vt -0.1415442 0.05
vt 0.1372626 -0.05
vt -0.1410836 -0.05
vt 0.1372626 0.05
vt -0.1410836 0.05
vt 0.1378711 -0.05
vt -0.1404753 -0.05
vt 0.1378711 0.05
vt -0.1404753 0.05
vt 0.1385801 -0.05
vt -0.1397661 -0.05
vt 0.1385801 0.05
vt -0.1397661 0.05
vt 0.1393359 -0.05
vt -0.1390103 -0.05
vt 0.1393359 0.05
vt -0.1390103 0.05
vt 0.05 0.1400781
vt 0.05 -0.1382682
vt -0.05 0.1400781
vt -0.05 -0.1382682
vt 0.05 0.1407506
vt 0.05 -0.1375954
vt -0.05 0.1407506
vt -0.05 -0.1375954
vt 0.05 0.1413011
vt 0.05 -0.1370451
vt -0.05 0.1413011
vt -0.05 -0.1370451
vt 0.141632 -0.05
vt -0.1367144 -0.05
vt 0.141632 0.05
vt -0.1367144 0.05
vt 0.141214 -0.05
vt -0.1371321 -0.05
vt 0.141214 0.05
vt -0.1371321 0.05
vt 0.1406389 -0.05
vt -0.1377071 -0.05
vt 0.1406389 0.05
vt -0.1377071 0.05
vt 0.13995 -0.05
vt -0.1383966 -0.05
vt 0.13995 0.05
vt -0.1383966 0.05
vt 0.1384493 -0.05
vt 0.1384493 0.05
vt -0.002497855 0.05
vt 0.9975022 0.05
vt -0.002497855 -0.05
vt 0.9975022 -0.05
vt -0.998782 0.002434462
vt -0.9600437 0.2780718
vt 0.001217961 0.002434462
vt 0.9600437 0.2780718
vt 0.998782 0.002434462
vt -0.001217961 0.002434462
vt -0.8468301 0.5323538
vt 0.8468301 0.5323538
vt -0.6679126 0.7455794
vt 0.6679126 0.7455794
vt -0.4371532 0.9012285
vt 0.4371532 0.9012285
vt -0.1724303 0.9872422
vt 0.1724303 0.9872422
vt 0.1057465 0.9969563
vt -0.1057465 0.9969563
vt 0.3758246 0.9296184
vt -0.3758246 0.9296184
vt 0.6168793 0.7904452
vt -0.6168793 0.7904452
vt 0.810235 0.5902196
vt -0.810235 0.5902196
vt 0.9409106 0.3444547
vt -0.9409106 0.3444547
vt 0.998782 0.07219093
vt -0.998782 0.07219093
vt 0.9793655 -0.2054773
vt -0.9793655 -0.2054773
vt 0.8841656 -0.4670371
vt -0.8841656 -0.4670371
vt 0.7205578 -0.6922239
vt -0.7205578 -0.6922239
vt 0.5012178 -0.863591
vt -0.5012178 -0.863591
vt 0.2431399 -0.9678613
vt -0.2431399 -0.9678613
vt -0.03368133 -0.9969563
vt 0.03368133 -0.9969563
vt -0.3077992 -0.948622
vt 0.3077992 -0.948622
vt -0.5579749 -0.8266032
vt 0.5579749 -0.8266032
vt -0.7648264 -0.6403533
vt 0.7648264 -0.6403533

vn -0.9902681 0.1391731 0
vn 0 0 0
vn 0 -1 0
vn -0.9135455 0.4067366 0
vn -0.7660444 0.6427876 0
vn -0.559193 0.8290375 0
vn -0.3090169 0.9510565 0
vn -0.03489942 0.9993908 0
vn 0.2419218 0.9702958 0
vn 0.5000003 0.8660253 0
vn 0.7193397 0.6946585 0
vn 0.8829476 0.4694716 0
vn 0.9781476 0.2079118 0
vn 0.997564 -0.06975688 0
vn 0.9396928 -0.3420197 0
vn 0.809017 -0.5877853 0
vn 0.6156613 -0.788011 0
vn 0.3746068 -0.9271837 0
vn 0.1045284 -0.9945219 0
vn -0.1736481 -0.9848078 0
vn -0.438371 -0.8987941 0
vn -0.6691306 -0.7431448 0
vn -0.6427878 0.7660443 0
vn 0 0 1
vn 0 0 0.5
vn 0 0 -1
vn 0 0 -0.5

usemtl WaterLilyMat
f 3/3/1 4/4/1 2/2/1 1/1/1
f 6/5/2 6/5/2 5/5/2 5/5/2
f 1/8/3 5/9/3 6/7/3 3/6/3
f 4/11/4 8/4/4 7/2/4 2/10/4
f 6/5/2 6/5/2 5/5/2 5/5/2
f 8/3/5 10/4/5 9/2/5 7/1/5
f 6/5/2 6/5/2 5/5/2 5/5/2
f 10/14/6 12/15/6 11/13/6 9/12/6
f 6/5/2 6/5/2 5/5/2 5/5/2
f 12/18/7 14/19/7 13/17/7 11/16/7
f 6/5/2 6/5/2 5/5/2 5/5/2
f 14/22/8 16/23/8 15/21/8 13/20/8
f 6/5/2 6/5/2 5/5/2 5/5/2
f 16/26/9 18/27/9 17/25/9 15/24/9
f 6/5/2 6/5/2 5/5/2 5/5/2
f 18/30/10 20/31/10 19/29/10 17/28/10
f 6/5/2 6/5/2 5/5/2 5/5/2
f 20/34/11 22/35/11 21/33/11 19/32/11
f 6/5/2 6/5/2 5/5/2 5/5/2
f 22/38/12 24/39/12 23/37/12 21/36/12
f 6/5/2 6/5/2 5/5/2 5/5/2
f 24/42/13 26/43/13 25/41/13 23/40/13
f 6/5/2 6/5/2 5/5/2 5/5/2
f 26/2/14 28/1/14 27/3/14 25/4/14
f 6/5/2 6/5/2 5/5/2 5/5/2
f 28/2/15 30/10/15 29/11/15 27/4/15
f 6/5/2 6/5/2 5/5/2 5/5/2
f 30/2/16 32/10/16 31/11/16 29/4/16
f 6/5/2 6/5/2 5/5/2 5/5/2
f 32/46/17 34/47/17 33/45/17 31/44/17
f 6/5/2 6/5/2 5/5/2 5/5/2
f 34/50/18 36/51/18 35/49/18 33/48/18
f 6/5/2 6/5/2 5/5/2 5/5/2
f 36/54/19 38/55/19 37/53/19 35/52/19
f 6/5/2 6/5/2 5/5/2 5/5/2
f 38/58/20 40/59/20 39/57/20 37/56/20
f 6/5/2 6/5/2 5/5/2 5/5/2
f 40/30/21 42/31/21 41/29/21 39/28/21
f 6/5/2 6/5/2 5/5/2 5/5/2
f 42/61/22 44/27/22 43/25/22 41/60/22
f 6/5/2 6/5/2 5/5/2 5/5/2
f 5/64/23 43/65/23 44/63/23 6/62/23
f 6/68/25 6/68/2 4/67/25 3/66/24
f 5/71/27 5/71/2 1/70/27 2/69/26
f 6/68/25 6/68/2 8/72/25 4/67/24
f 5/71/27 5/71/2 2/69/27 7/73/26
f 6/68/25 6/68/2 10/74/25 8/72/24
f 5/71/27 5/71/2 7/73/27 9/75/26
f 6/68/25 6/68/2 12/76/25 10/74/24
f 5/71/27 5/71/2 9/75/27 11/77/26
f 6/68/25 6/68/2 14/78/25 12/76/24
f 5/71/27 5/71/2 11/77/27 13/79/26
f 6/68/25 6/68/2 16/80/25 14/78/24
f 5/71/27 5/71/2 13/79/27 15/81/26
f 6/68/25 6/68/2 18/82/25 16/80/24
f 5/71/27 5/71/2 15/81/27 17/83/26
f 6/68/25 6/68/2 20/84/25 18/82/24
f 5/71/27 5/71/2 17/83/27 19/85/26
f 6/68/25 6/68/2 22/86/25 20/84/24
f 5/71/27 5/71/2 19/85/27 21/87/26
f 6/68/25 6/68/2 24/88/25 22/86/24
f 5/71/27 5/71/2 21/87/27 23/89/26
f 6/68/25 6/68/2 26/90/25 24/88/24
f 5/71/27 5/71/2 23/89/27 25/91/26
f 6/68/25 6/68/2 28/92/25 26/90/24
f 5/71/27 5/71/2 25/91/27 27/93/26
f 6/68/25 6/68/2 30/94/25 28/92/24
f 5/71/27 5/71/2 27/93/27 29/95/26
f 6/68/25 6/68/2 32/96/25 30/94/24
f 5/71/27 5/71/2 29/95/27 31/97/26
f 6/68/25 6/68/2 34/98/25 32/96/24
f 5/71/27 5/71/2 31/97/27 33/99/26
f 6/68/25 6/68/2 36/100/25 34/98/24
f 5/71/27 5/71/2 33/99/27 35/101/26
f 6/68/25 6/68/2 38/102/25 36/100/24
f 5/71/27 5/71/2 35/101/27 37/103/26
f 6/68/25 6/68/2 40/104/25 38/102/24
f 5/71/27 5/71/2 37/103/27 39/105/26
f 6/68/25 6/68/2 42/106/25 40/104/24
f 5/71/27 5/71/2 39/105/27 41/107/26
f 6/68/25 6/68/2 44/108/25 42/106/24
f 5/71/27 5/71/2 41/107/27 43/109/26

